<svg id="Layer_1" data-name="Layer 1" xmlns="http://www.w3.org/2000/svg" xmlns:xlink="http://www.w3.org/1999/xlink" viewBox="0 0 80 80"><defs><style>.cls-1{fill:none;stroke-linecap:round;stroke-linejoin:round;stroke-width:2.25px;stroke:url(#New_Gradient_Swatch_1);}</style><linearGradient id="New_Gradient_Swatch_1" x1="6.88" y1="8.97" x2="71.64" y2="73.73" gradientUnits="userSpaceOnUse"><stop offset="0" stop-color="#2d72b9"/><stop offset="1" stop-color="#2cbcb1"/></linearGradient></defs><title>icon set_Additional40_Security_AC</title><path class="cls-1" d="M16.83,44.16H35.75m-11.94-.58v-5m5,5v-5M52.24,22.32A10.76,10.76,0,1,0,63,33.08,10.75,10.75,0,0,0,52.24,22.32Zm-5.88-3v-7.2A2.11,2.11,0,0,0,44.25,10H8.34a2.1,2.1,0,0,0-2.11,2.1V35.88A2.11,2.11,0,0,0,8.34,38H38.09M73.77,61.94A13.47,13.47,0,0,0,60.3,48.48H44.17A13.47,13.47,0,0,0,30.7,61.94V70H73.77ZM40.15,70V60.87M64.32,70V60.87M43.41,21v-8H9.18V35H37.39m-7.61-15.5a4.23,4.23,0,0,1-3.49-1.83,4.22,4.22,0,0,1-5.23,1.45c-.06.67-.09,2.5-.09,3.21a8,8,0,0,0,5.32,7.91,8,8,0,0,0,5.33-7.91c0-.71,0-2.54-.09-3.21A4.3,4.3,0,0,1,29.78,19.54Z"/></svg>